# xmcd
#
# Track frame offsets:
#	150
#	15422
#	29795
#	49013
#	66172
#	80849
#	95087
#	111521
#	125277
#	138755
#	153203
#	172251
#
# Disc length: 2462 seconds
#
# Revision: 0
# Processed by: cddbd v1.5.2PL0 Copyright (c) Steve Scherf et al.
# Submitted via: audiograbber 1.83.01
#
DISCID=a5099c0c
DTITLE=John Mayall - Blues giant CD1
DYEAR=1900
DGENRE=
TTITLE0=Brand new start
TTITLE1=Open up a new door
TTITLE2=Tears in my eyes
TTITLE3=Sonny boy blow
TTITLE4=I wanna teach you everything
TTITLE5=No more tears
TTITLE6=Down the line
TTITLE7=Another kind of love
TTITLE8=Some day after a while
TTITLE9=Streamline
TTITLE10=Broken wings
TTITLE11=It's over
EXTD=digitalized and remastered by westwood records
EXTT0=
EXTT1=
EXTT2=
EXTT3=
EXTT4=
EXTT5=
EXTT6=
EXTT7=
EXTT8=
EXTT9=
EXTT10=
EXTT11=
PLAYORDER=
